<svg xmlns="http://www.w3.org/2000/svg" viewBox="0 0 1200 630" role="img"><rect width="1200" height="630" fill="#fcfcfa"/><line x1="100" y1="0" x2="100" y2="630" stroke="#e3e2db" stroke-width="1"/><line x1="200" y1="0" x2="200" y2="630" stroke="#e3e2db" stroke-width="1"/><line x1="300" y1="0" x2="300" y2="630" stroke="#e3e2db" stroke-width="1"/><line x1="400" y1="0" x2="400" y2="630" stroke="#e3e2db" stroke-width="1"/><line x1="500" y1="0" x2="500" y2="630" stroke="#e3e2db" stroke-width="1"/><line x1="600" y1="0" x2="600" y2="630" stroke="#e3e2db" stroke-width="1"/><line x1="700" y1="0" x2="700" y2="630" stroke="#e3e2db" stroke-width="1"/><line x1="800" y1="0" x2="800" y2="630" stroke="#e3e2db" stroke-width="1"/><line x1="900" y1="0" x2="900" y2="630" stroke="#e3e2db" stroke-width="1"/><line x1="1000" y1="0" x2="1000" y2="630" stroke="#e3e2db" stroke-width="1"/><line x1="1100" y1="0" x2="1100" y2="630" stroke="#e3e2db" stroke-width="1"/><line x1="0" y1="105" x2="1200" y2="105" stroke="#e3e2db" stroke-width="1"/><line x1="0" y1="210" x2="1200" y2="210" stroke="#e3e2db" stroke-width="1"/><line x1="0" y1="315" x2="1200" y2="315" stroke="#e3e2db" stroke-width="1"/><line x1="0" y1="420" x2="1200" y2="420" stroke="#e3e2db" stroke-width="1"/><line x1="0" y1="525" x2="1200" y2="525" stroke="#e3e2db" stroke-width="1"/><circle cx="700" cy="105" r="53" fill="none" stroke="#16171d" stroke-width="2"/><path d="M 891 420 A 109 109 0 0 1 1109 420" fill="none" stroke="#2b45ff" stroke-width="2.5"/><circle cx="300" cy="105" r="45" fill="#16171d"/><rect x="900" y="315" width="300" height="210" fill="none" stroke="#16171d" stroke-width="2"/><circle cx="600" cy="210" r="4.5" fill="#16171d"/><circle cx="622" cy="210" r="4.5" fill="#16171d"/><circle cx="644" cy="210" r="4.5" fill="#16171d"/><rect x="1000" y="315" width="27" height="27" fill="#2b45ff"/><path d="M 938 210 A 62 62 0 0 1 1062 210" fill="none" stroke="#2b45ff" stroke-width="2.5"/><circle cx="900" cy="210" r="39" fill="none" stroke="#16171d" stroke-width="2"/><rect x="1000" y="315" width="200" height="210" fill="none" stroke="#16171d" stroke-width="2"/><path d="M 328 315 A 172 172 0 0 1 672 315" fill="none" stroke="#2b45ff" stroke-width="2.5"/><rect x="600" y="210" width="300" height="210" fill="none" stroke="#16171d" stroke-width="2"/><rect x="0.5" y="0.5" width="1199" height="629" fill="none" stroke="#16171d" stroke-width="1.5"/><rect x="40" y="534" width="169" height="52" fill="#fcfcfa" stroke="#16171d" stroke-width="1.5"/><text x="57" y="568" font-family="'IBM Plex Mono','SF Mono',Menlo,monospace" font-size="24" letter-spacing="4" fill="#16171d">CONTEXT</text><rect x="28" y="38" width="320" height="40" fill="#fcfcfa"/><rect x="1020" y="38" width="152" height="40" fill="#fcfcfa"/><text x="40" y="64" font-family="'IBM Plex Mono','SF Mono',Menlo,monospace" font-size="17" letter-spacing="5" fill="#16171d">AGENTIC COVER</text><text x="1160" y="64" text-anchor="end" font-family="'IBM Plex Mono','SF Mono',Menlo,monospace" font-size="17" letter-spacing="3" fill="#2b45ff">NO. 01</text></svg>
