<svg xmlns="http://www.w3.org/2000/svg" viewBox="0 0 1200 630" role="img"><rect width="1200" height="630" fill="#fcfcfa"/><line x1="100" y1="0" x2="100" y2="630" stroke="#e3e2db" stroke-width="1"/><line x1="200" y1="0" x2="200" y2="630" stroke="#e3e2db" stroke-width="1"/><line x1="300" y1="0" x2="300" y2="630" stroke="#e3e2db" stroke-width="1"/><line x1="400" y1="0" x2="400" y2="630" stroke="#e3e2db" stroke-width="1"/><line x1="500" y1="0" x2="500" y2="630" stroke="#e3e2db" stroke-width="1"/><line x1="600" y1="0" x2="600" y2="630" stroke="#e3e2db" stroke-width="1"/><line x1="700" y1="0" x2="700" y2="630" stroke="#e3e2db" stroke-width="1"/><line x1="800" y1="0" x2="800" y2="630" stroke="#e3e2db" stroke-width="1"/><line x1="900" y1="0" x2="900" y2="630" stroke="#e3e2db" stroke-width="1"/><line x1="1000" y1="0" x2="1000" y2="630" stroke="#e3e2db" stroke-width="1"/><line x1="1100" y1="0" x2="1100" y2="630" stroke="#e3e2db" stroke-width="1"/><line x1="0" y1="105" x2="1200" y2="105" stroke="#e3e2db" stroke-width="1"/><line x1="0" y1="210" x2="1200" y2="210" stroke="#e3e2db" stroke-width="1"/><line x1="0" y1="315" x2="1200" y2="315" stroke="#e3e2db" stroke-width="1"/><line x1="0" y1="420" x2="1200" y2="420" stroke="#e3e2db" stroke-width="1"/><line x1="0" y1="525" x2="1200" y2="525" stroke="#e3e2db" stroke-width="1"/><path d="M 442 420 A 158 158 0 0 1 758 420" fill="none" stroke="#2b45ff" stroke-width="2.5"/><circle cx="700" cy="210" r="56" fill="none" stroke="#16171d" stroke-width="2"/><rect x="600" y="210" width="100" height="210" fill="none" stroke="#16171d" stroke-width="2"/><circle cx="200" cy="210" r="4.5" fill="#16171d"/><circle cx="222" cy="210" r="4.5" fill="#16171d"/><circle cx="244" cy="210" r="4.5" fill="#16171d"/><circle cx="266" cy="210" r="4.5" fill="#16171d"/><circle cx="288" cy="210" r="4.5" fill="#16171d"/><circle cx="600" cy="105" r="4.5" fill="#16171d"/><circle cx="622" cy="105" r="4.5" fill="#16171d"/><circle cx="644" cy="105" r="4.5" fill="#16171d"/><rect x="100" y="210" width="100" height="105" fill="none" stroke="#16171d" stroke-width="2"/><circle cx="100" cy="420" r="4.5" fill="#16171d"/><circle cx="122" cy="420" r="4.5" fill="#16171d"/><circle cx="144" cy="420" r="4.5" fill="#16171d"/><circle cx="166" cy="420" r="4.5" fill="#16171d"/><circle cx="500" cy="105" r="4.5" fill="#16171d"/><circle cx="522" cy="105" r="4.5" fill="#16171d"/><circle cx="544" cy="105" r="4.5" fill="#16171d"/><circle cx="566" cy="105" r="4.5" fill="#16171d"/><circle cx="588" cy="105" r="4.5" fill="#16171d"/><circle cx="610" cy="105" r="4.5" fill="#16171d"/><circle cx="100" cy="315" r="34" fill="#16171d"/><circle cx="500" cy="210" r="4.5" fill="#16171d"/><circle cx="522" cy="210" r="4.5" fill="#16171d"/><circle cx="544" cy="210" r="4.5" fill="#16171d"/><circle cx="566" cy="210" r="4.5" fill="#16171d"/><circle cx="588" cy="210" r="4.5" fill="#16171d"/><rect x="100" y="210" width="200" height="210" fill="none" stroke="#16171d" stroke-width="2"/><rect x="0.5" y="0.5" width="1199" height="629" fill="none" stroke="#16171d" stroke-width="1.5"/><rect x="40" y="534" width="207" height="52" fill="#fcfcfa" stroke="#16171d" stroke-width="1.5"/><text x="57" y="568" font-family="'IBM Plex Mono','SF Mono',Menlo,monospace" font-size="24" letter-spacing="4" fill="#16171d">REASONING</text><rect x="28" y="38" width="320" height="40" fill="#fcfcfa"/><rect x="1020" y="38" width="152" height="40" fill="#fcfcfa"/><text x="40" y="64" font-family="'IBM Plex Mono','SF Mono',Menlo,monospace" font-size="17" letter-spacing="5" fill="#16171d">AGENTIC COVER</text><text x="1160" y="64" text-anchor="end" font-family="'IBM Plex Mono','SF Mono',Menlo,monospace" font-size="17" letter-spacing="3" fill="#2b45ff">NO. 09</text></svg>
